REM MD5 aafde3aaf905f0e4c4aaf02861ffbd46
FILE "Toys R Us - Attack of the Killer Demos! (USA).bin" BINARY
  TRACK 01 MODE2/2352
    INDEX 01 00:00:00
  TRACK 02 AUDIO
    INDEX 00 38:25:67
    INDEX 01 38:27:67
  TRACK 03 AUDIO
    INDEX 00 38:35:26
    INDEX 01 38:37:26
  TRACK 04 AUDIO
    INDEX 00 38:44:66
    INDEX 01 38:46:66
REM LEADOUT 38:52:62
